<svg width="240" height="240" viewBox="0 0 240 240" fill="none" xmlns="http://www.w3.org/2000/svg">
  <defs>
    <radialGradient id="pillGlow" cx="0" cy="0" r="1" gradientUnits="userSpaceOnUse" gradientTransform="translate(120 120) rotate(90) scale(120)">
      <stop stop-color="#FFEED0" stop-opacity="0.95"/>
      <stop offset="0.35" stop-color="#E7C47B" stop-opacity="0.65"/>
      <stop offset="0.65" stop-color="#B7771F" stop-opacity="0.25"/>
      <stop offset="1" stop-color="#0B0703" stop-opacity="0"/>
    </radialGradient>
    <linearGradient id="rayGold" x1="120" y1="10" x2="120" y2="90" gradientUnits="userSpaceOnUse">
      <stop stop-color="#F6E0BC" stop-opacity="0.9"/>
      <stop offset="0.45" stop-color="#D8B15C" stop-opacity="0.9"/>
      <stop offset="1" stop-color="#B87720" stop-opacity="0"/>
    </linearGradient>
    <linearGradient id="ringGold" x1="50" y1="80" x2="190" y2="160" gradientUnits="userSpaceOnUse">
      <stop stop-color="#FBE9C6"/>
      <stop offset="0.5" stop-color="#E2BC66"/>
      <stop offset="1" stop-color="#B36E17"/>
    </linearGradient>
    <radialGradient id="iris" cx="0" cy="0" r="1" gradientUnits="userSpaceOnUse" gradientTransform="translate(120 120) rotate(90) scale(50 72)">
      <stop stop-color="#FFF9EC"/>
      <stop offset="0.35" stop-color="#E3BE6C" stop-opacity="0.92"/>
      <stop offset="0.65" stop-color="#B8741D" stop-opacity="0.55"/>
      <stop offset="1" stop-color="#0B0703" stop-opacity="0.05"/>
    </radialGradient>
  </defs>

  <rect width="240" height="240" fill="none"/>

  <circle cx="120" cy="120" r="118" fill="url(#pillGlow)" opacity="0.6"/>

  <g stroke="url(#rayGold)" stroke-width="3" stroke-linecap="round" opacity="0.9">
    <line x1="120" y1="12" x2="120" y2="78"/>
    <line x1="120" y1="162" x2="120" y2="228" transform="rotate(180 120 120)"/>
    <line x1="120" y1="14" x2="120" y2="94" transform="rotate(15 120 120)"/>
    <line x1="120" y1="14" x2="120" y2="94" transform="rotate(30 120 120)"/>
    <line x1="120" y1="14" x2="120" y2="94" transform="rotate(45 120 120)"/>
    <line x1="120" y1="14" x2="120" y2="94" transform="rotate(60 120 120)"/>
    <line x1="120" y1="14" x2="120" y2="94" transform="rotate(75 120 120)"/>
    <line x1="120" y1="14" x2="120" y2="94" transform="rotate(90 120 120)"/>
    <line x1="120" y1="14" x2="120" y2="94" transform="rotate(105 120 120)"/>
    <line x1="120" y1="14" x2="120" y2="94" transform="rotate(120 120 120)"/>
    <line x1="120" y1="14" x2="120" y2="94" transform="rotate(135 120 120)"/>
    <line x1="120" y1="14" x2="120" y2="94" transform="rotate(150 120 120)"/>
    <line x1="120" y1="14" x2="120" y2="94" transform="rotate(165 120 120)"/>
    <line x1="120" y1="14" x2="120" y2="94" transform="rotate(195 120 120)"/>
    <line x1="120" y1="14" x2="120" y2="94" transform="rotate(210 120 120)"/>
    <line x1="120" y1="14" x2="120" y2="94" transform="rotate(225 120 120)"/>
    <line x1="120" y1="14" x2="120" y2="94" transform="rotate(240 120 120)"/>
    <line x1="120" y1="14" x2="120" y2="94" transform="rotate(255 120 120)"/>
    <line x1="120" y1="14" x2="120" y2="94" transform="rotate(270 120 120)"/>
    <line x1="120" y1="14" x2="120" y2="94" transform="rotate(285 120 120)"/>
    <line x1="120" y1="14" x2="120" y2="94" transform="rotate(300 120 120)"/>
    <line x1="120" y1="14" x2="120" y2="94" transform="rotate(315 120 120)"/>
    <line x1="120" y1="14" x2="120" y2="94" transform="rotate(330 120 120)"/>
    <line x1="120" y1="14" x2="120" y2="94" transform="rotate(345 120 120)"/>
  </g>

  <path d="M32 120c22-34 52-54 88-54s66 20 88 54c-22 34-52 54-88 54s-66-20-88-54Z" stroke="url(#ringGold)" stroke-width="8" fill="url(#pillGlow)" opacity="0.75" stroke-linecap="round" stroke-linejoin="round"/>
  <path d="M48 120c18-29 44-46 72-46s54 17 72 46c-18 29-44 46-72 46s-54-17-72-46Z" fill="url(#iris)" opacity="0.28"/>
  <circle cx="120" cy="120" r="26" fill="url(#iris)" opacity="0.85"/>
  <circle cx="120" cy="120" r="14" fill="url(#ringGold)" opacity="0.9"/>
  <circle cx="120" cy="120" r="8" fill="#FFF9EC"/>
  <circle cx="110" cy="112" r="6" fill="#FFF7E6" opacity="0.85"/>
  <circle cx="132" cy="128" r="4" fill="#FFF4DA" opacity="0.8"/>
</svg>
