<svg width="48" height="48" viewBox="0 0 48 48" fill="none" xmlns="http://www.w3.org/2000/svg">
  <defs>
    <linearGradient id="bookGold" x1="10" y1="10" x2="38" y2="38" gradientUnits="userSpaceOnUse">
      <stop stop-color="#F7E6C3"/>
      <stop offset="0.5" stop-color="#D8B15C"/>
      <stop offset="1" stop-color="#B87921"/>
    </linearGradient>
    <linearGradient id="bookPage" x1="14" y1="14" x2="30" y2="30" gradientUnits="userSpaceOnUse">
      <stop stop-color="#FFFFFF" stop-opacity="0.9"/>
      <stop offset="1" stop-color="#E8D7AF" stop-opacity="0.75"/>
    </linearGradient>
  </defs>
  <path d="M12 12h12c3 0 5 2 5 5v19c-1.4-1-3.2-1.5-5-1.5H12V12Z" stroke="url(#bookGold)" stroke-width="2.2" stroke-linejoin="round" fill="rgba(0,0,0,0.08)"/>
  <path d="M36 12H24v22.5c1.8 0 3.6.5 5 1.5h7V17c0-3-2-5-5-5Z" stroke="url(#bookGold)" stroke-width="2.2" stroke-linejoin="round" fill="rgba(0,0,0,0.08)"/>
  <path d="M18 16h4M18 20h4M18 24h4" stroke="url(#bookGold)" stroke-width="1.6" stroke-linecap="round" opacity="0.9"/>
  <path d="M26 16h4M26 20h4" stroke="url(#bookGold)" stroke-width="1.6" stroke-linecap="round" opacity="0.7"/>
  <path d="M12 12c2 0 4 .7 5.5 2 1.5-1.3 3.5-2 5.5-2" stroke="url(#bookPage)" stroke-width="1.8" stroke-linecap="round" opacity="0.95"/>
</svg>
