<svg width="48" height="48" viewBox="0 0 48 48" fill="none" xmlns="http://www.w3.org/2000/svg">
  <defs>
    <linearGradient id="customGold" x1="10" y1="8" x2="38" y2="40" gradientUnits="userSpaceOnUse">
      <stop stop-color="#F7E6C3"/>
      <stop offset="0.5" stop-color="#D8B15C"/>
      <stop offset="1" stop-color="#B87921"/>
    </linearGradient>
    <linearGradient id="customShine" x1="16" y1="12" x2="32" y2="28" gradientUnits="userSpaceOnUse">
      <stop stop-color="#FFFFFF" stop-opacity="0.85"/>
      <stop offset="1" stop-color="#D8B15C" stop-opacity="0.6"/>
    </linearGradient>
  </defs>
  <path d="M24 6 30.5 12.5 24 19 17.5 12.5 24 6Z" fill="url(#customGold)" stroke="url(#customGold)" stroke-width="1.6" stroke-linejoin="round"/>
  <path d="M11 20c0-2.8 2.2-5 5-5h16c2.8 0 5 2.2 5 5v10c0 2.8-2.2 5-5 5H16c-2.8 0-5-2.2-5-5V20Z" stroke="url(#customGold)" stroke-width="2.2" stroke-linejoin="round" fill="rgba(0,0,0,0.1)"/>
  <path d="M18 24.5c0-3.3 2.7-6 6-6s6 2.7 6 6-2.7 6-6 6-6-2.7-6-6Z" stroke="url(#customGold)" stroke-width="1.6" fill="url(#customShine)" opacity="0.85"/>
  <path d="M24 20.5 25 23l2.5 1-2.5 1L24 28l-1-3-2.5-1 2.5-1 1-2.5Z" fill="url(#customGold)" opacity="0.9"/>
  <circle cx="32" cy="18" r="1.8" fill="url(#customShine)"/>
</svg>
