<svg width="24" height="24" viewBox="0 0 24 24" fill="none" xmlns="http://www.w3.org/2000/svg">
  <defs>
    <linearGradient id="brainGold" x1="6" y1="5" x2="18" y2="19" gradientUnits="userSpaceOnUse">
      <stop stop-color="#FDE9C9"/>
      <stop offset="0.5" stop-color="#D8B15C"/>
      <stop offset="1" stop-color="#B87921"/>
    </linearGradient>
  </defs>
  <path d="M9 6.5c-1.6 0-2.8 1.3-2.8 2.8v2.5c0 1 .3 1.8 1 2.5l1.1 1.1c.4.4.7.9.7 1.5V19" stroke="url(#brainGold)" stroke-width="1.5" stroke-linecap="round"/>
  <path d="M15 6.5c1.6 0 2.8 1.3 2.8 2.8v2.5c0 1-.3 1.8-1 2.5l-1.1 1.1c-.4.4-.7.9-.7 1.5V19" stroke="url(#brainGold)" stroke-width="1.5" stroke-linecap="round"/>
  <path d="M11 5.5v2m2-2v2m-2 2.5v2m2-2v2" stroke="url(#brainGold)" stroke-width="1.4" stroke-linecap="round"/>
  <circle cx="12" cy="10.5" r=".9" fill="#FDE9C9"/>
</svg>
